TITLE ""
FILE "2Q_t_1001-1017.mp3" MP3
  TRACK 01 AUDIO
    TITLE "2Q_t_1001-1017_01"
    INDEX 01 00:00:00
  TRACK 02 AUDIO
    TITLE "2Q_t_1001-1017_02"
    INDEX 01 00:00:18
  TRACK 03 AUDIO
    TITLE "2Q_t_1001-1017_03"
    INDEX 01 00:01:55
  TRACK 04 AUDIO
    TITLE "2Q_t_1001-1017_04"
    INDEX 01 00:02:25
  TRACK 05 AUDIO
    TITLE "2Q_t_1001-1017_05"
    INDEX 01 00:03:32
  TRACK 06 AUDIO
    TITLE "2Q_t_1001-1017_06"
    INDEX 01 00:04:02
  TRACK 07 AUDIO
    TITLE "2Q_t_1001-1017_07"
    INDEX 01 00:05:06
  TRACK 08 AUDIO
    TITLE "2Q_t_1001-1017_08"
    INDEX 01 00:05:49
  TRACK 09 AUDIO
    TITLE "2Q_t_1001-1017_09"
    INDEX 01 00:10:11
  TRACK 10 AUDIO
    TITLE "2Q_t_1001-1017_10"
    INDEX 01 00:10:56
  TRACK 11 AUDIO
    TITLE "2Q_t_1001-1017_11"
    INDEX 01 00:12:08
  TRACK 12 AUDIO
    TITLE "2Q_t_1001-1017_12"
    INDEX 01 00:12:55
  TRACK 13 AUDIO
    TITLE "2Q_t_1001-1017_13"
    INDEX 01 00:14:30
  TRACK 14 AUDIO
    TITLE "2Q_t_1001-1017_14"
    INDEX 01 00:15:00
  TRACK 15 AUDIO
    TITLE "2Q_t_1001-1017_15"
    INDEX 01 00:16:07
  TRACK 16 AUDIO
    TITLE "2Q_t_1001-1017_16"
    INDEX 01 00:16:52
  TRACK 17 AUDIO
    TITLE "2Q_t_1001-1017_17"
    INDEX 01 00:20:62
  TRACK 18 AUDIO
    TITLE "2Q_t_1001-1017_18"
    INDEX 01 00:21:32
  TRACK 19 AUDIO
    TITLE "2Q_t_1001-1017_19"
    INDEX 01 00:22:49
  TRACK 20 AUDIO
    TITLE "2Q_t_1001-1017_20"
    INDEX 01 00:23:25
  TRACK 21 AUDIO
    TITLE "2Q_t_1001-1017_21"
    INDEX 01 00:26:63
  TRACK 22 AUDIO
    TITLE "2Q_t_1001-1017_22"
    INDEX 01 00:27:31
  TRACK 23 AUDIO
    TITLE "2Q_t_1001-1017_23"
    INDEX 01 00:28:50
  TRACK 24 AUDIO
    TITLE "2Q_t_1001-1017_24"
    INDEX 01 00:29:24
  TRACK 25 AUDIO
    TITLE "2Q_t_1001-1017_25"
    INDEX 01 00:30:60
  TRACK 26 AUDIO
    TITLE "2Q_t_1001-1017_26"
    INDEX 01 00:31:32
  TRACK 27 AUDIO
    TITLE "2Q_t_1001-1017_27"
    INDEX 01 00:32:34
  TRACK 28 AUDIO
    TITLE "2Q_t_1001-1017_28"
    INDEX 01 00:33:06
  TRACK 29 AUDIO
    TITLE "2Q_t_1001-1017_29"
    INDEX 01 00:34:39
  TRACK 30 AUDIO
    TITLE "2Q_t_1001-1017_30"
    INDEX 01 00:35:09
  TRACK 31 AUDIO
    TITLE "2Q_t_1001-1017_31"
    INDEX 01 00:36:39
  TRACK 32 AUDIO
    TITLE "2Q_t_1001-1017_32"
    INDEX 01 00:37:11
  TRACK 33 AUDIO
    TITLE "2Q_t_1001-1017_33"
    INDEX 01 00:43:04
  TRACK 34 AUDIO
    TITLE "2Q_t_1001-1017_34"
    INDEX 01 00:43:49
  TRACK 35 AUDIO
    TITLE "2Q_t_1001-1017_35"
    INDEX 01 00:44:39
  TRACK 36 AUDIO
    TITLE "2Q_t_1001-1017_36"
    INDEX 01 00:45:17
  TRACK 37 AUDIO
    TITLE "2Q_t_1001-1017_37"
    INDEX 01 00:46:73
  TRACK 38 AUDIO
    TITLE "2Q_t_1001-1017_38"
    INDEX 01 00:47:41
  TRACK 39 AUDIO
    TITLE "2Q_t_1001-1017_39"
    INDEX 01 00:48:70
  TRACK 40 AUDIO
    TITLE "2Q_t_1001-1017_40"
    INDEX 01 00:49:42
  TRACK 41 AUDIO
    TITLE "2Q_t_1001-1017_41"
    INDEX 01 00:51:16
  TRACK 42 AUDIO
    TITLE "2Q_t_1001-1017_42"
    INDEX 01 00:51:61
  TRACK 43 AUDIO
    TITLE "2Q_t_1001-1017_43"
    INDEX 01 00:52:72
  TRACK 44 AUDIO
    TITLE "2Q_t_1001-1017_44"
    INDEX 01 00:53:42
  TRACK 45 AUDIO
    TITLE "2Q_t_1001-1017_45"
    INDEX 01 00:55:03
  TRACK 46 AUDIO
    TITLE "2Q_t_1001-1017_46"
    INDEX 01 00:55:49
  TRACK 47 AUDIO
    TITLE "2Q_t_1001-1017_47"
    INDEX 01 00:56:70
  TRACK 48 AUDIO
    TITLE "2Q_t_1001-1017_48"
    INDEX 01 00:57:42
  TRACK 49 AUDIO
    TITLE "2Q_t_1001-1017_49"
    INDEX 01 01:00:46
  TRACK 50 AUDIO
    TITLE "2Q_t_1001-1017_50"
    INDEX 01 01:01:16
  TRACK 51 AUDIO
    TITLE "2Q_t_1001-1017_51"
    INDEX 01 01:02:23
  TRACK 52 AUDIO
    TITLE "2Q_t_1001-1017_52"
    INDEX 01 01:02:72
  TRACK 53 AUDIO
    TITLE "2Q_t_1001-1017_53"
    INDEX 01 01:04:40
  TRACK 54 AUDIO
    TITLE "2Q_t_1001-1017_54"
    INDEX 01 01:05:10
  TRACK 55 AUDIO
    TITLE "2Q_t_1001-1017_55"
    INDEX 01 01:06:15
  TRACK 56 AUDIO
    TITLE "2Q_t_1001-1017_56"
    INDEX 01 01:06:62
  TRACK 57 AUDIO
    TITLE "2Q_t_1001-1017_57"
    INDEX 01 01:08:04
  TRACK 58 AUDIO
    TITLE "2Q_t_1001-1017_58"
    INDEX 01 01:08:53
  TRACK 59 AUDIO
    TITLE "2Q_t_1001-1017_59"
    INDEX 01 01:09:60
  TRACK 60 AUDIO
    TITLE "2Q_t_1001-1017_60"
    INDEX 01 01:10:32
  TRACK 61 AUDIO
    TITLE "2Q_t_1001-1017_61"
    INDEX 01 01:11:63
  TRACK 62 AUDIO
    TITLE "2Q_t_1001-1017_62"
    INDEX 01 01:12:33
  TRACK 63 AUDIO
    TITLE "2Q_t_1001-1017_63"
    INDEX 01 01:13:62
  TRACK 64 AUDIO
    TITLE "2Q_t_1001-1017_64"
    INDEX 01 01:14:32
  TRACK 65 AUDIO
    TITLE "2Q_t_1001-1017_65"
    INDEX 01 01:16:08
  TRACK 66 AUDIO
    TITLE "2Q_t_1001-1017_66"
    INDEX 01 01:16:53
  TRACK 67 AUDIO
    TITLE "2Q_t_1001-1017_67"
    INDEX 01 01:17:68
  TRACK 68 AUDIO
    TITLE "2Q_t_1001-1017_68"
    INDEX 01 01:18:40
  TRACK 69 AUDIO
    TITLE "2Q_t_1001-1017_69"
    INDEX 01 01:20:07
  TRACK 70 AUDIO
    TITLE "2Q_t_1001-1017_70"
    INDEX 01 01:20:52
  TRACK 71 AUDIO
    TITLE "2Q_t_1001-1017_71"
    INDEX 01 01:22:00
  TRACK 72 AUDIO
    TITLE "2Q_t_1001-1017_72"
    INDEX 01 01:22:47
  TRACK 73 AUDIO
    TITLE "2Q_t_1001-1017_73"
    INDEX 01 01:24:27
